PathFileType	4	(X/Y/Z)	18_1_2_p0_0-336.trc
DataRate	CameraRate	NumFrames	NumMarkers	Units	OrigDataRate	OrigDataStartFrame	OrigNumFrames
59.0	59.0	5	27	m	59.0	84	337
Frame#	Time	RHip			RKnee			RAnkle			RBigToe			RSmallToe			RHeel			LHip			LKnee			LAnkle			LBigToe			LSmallToe			LHeel			Neck			Head			Nose			RShoulder			RElbow			RWrist			RThumb			RIndex			RPinky			LShoulder			LElbow			LWrist			LThumb			LIndex			LPinky			
		X1	Y1	Z1	X2	Y2	Z2	X3	Y3	Z3	X4	Y4	Z4	X5	Y5	Z5	X6	Y6	Z6	X7	Y7	Z7	X8	Y8	Z8	X9	Y9	Z9	X10	Y10	Z10	X11	Y11	Z11	X12	Y12	Z12	X13	Y13	Z13	X14	Y14	Z14	X15	Y15	Z15	X16	Y16	Z16	X17	Y17	Z17	X18	Y18	Z18	X19	Y19	Z19	X20	Y20	Z20	X21	Y21	Z21	X22	Y22	Z22	X23	Y23	Z23	X24	Y24	Z24	X25	Y25	Z25	X26	Y26	Z26	X27	Y27	Z27	
84	1.423728813559322	0.2591060808203913	0.4070212287811563	1.2258484326138537	0.22458430603349025	0.4317209648324877	1.630614896628922	0.22577655849425982	0.5012558743651413	1.9939189440860876	0.22154890469016886	0.35546879410443133	2.0252810492678	0.28222183698405584	0.39805585833826235	2.0344965094937253	0.21875351772944915	0.6213578975616545	2.069535941227202	0.04943582006553303	0.40627860594986775	1.2244603297224443	0.03895252774256276	0.49703154052997117	1.6541361770302205	0.03223090789002064	0.5687772266480473	2.0302667632627056	0.06711406517955787	0.344728570090044	2.016467785922365	0.016800782198693714	0.38132518342761523	2.0185881549128335	0.042914116977790406	0.6136773878111892	2.0646906418277795	0.17852807032783946	0.3377287055293344	0.6935340519735995	0.19668507629884216	0.27335398479605105	0.4663000360854384	0.19225063314750954	0.24466787040973956	0.5819506333633986	0.3042370750855295	0.3119678083467669	0.7713385980305171	0.2865321718614337	0.16925963898448487	0.9455449628824767	0.207823153937348	-0.061963197665521	1.0415393256708934	0.1334506036620571	-0.13299745402985896	1.0785184013566156	0.13640057919619994	-0.13130270998769367	1.0958066832535844	0.16807004628895275	-0.1377495693663671	1.107445846097605	0.03222548546727017	0.3569555417728242	0.7715607615621799	0.038650004205413625	0.09363397371785512	0.9428819586472836	0.10209996763749064	-0.08207647553858051	1.0345876372419966	0.14179322753241763	-0.13763647873776658	1.0607190475137482	0.16180307620379936	-0.1369774342911959	1.0946599635369625	0.15178095314589282	-0.1288903166943304	1.1010212709310594
85	1.4406779661016949	0.2584751359568281	0.4045836743790234	1.2209722171642725	0.22813506678977477	0.44505689382077385	1.6351021680658535	0.22914317833432016	0.5154545085445722	2.0002305582777207	0.22486008830801044	0.3693437959586633	2.031807071280586	0.2860261099424047	0.4119553980634863	2.041058940500745	0.21876189503353824	0.6211945047920022	2.069305088526054	0.05449515724031123	0.3931167403897958	1.2213239391564563	0.038958185634444205	0.49702210322702317	1.654223238124436	0.03224635557012897	0.5687256143233347	2.0302575731113977	0.06715174080599917	0.34483238341686534	2.0165284530654892	0.01683085236221185	0.3812442019646488	2.0183802495514733	0.03980807352340658	0.5990994158532426	2.0580285630867823	0.17445462253988206	0.3502634978716455	0.6940857111803669	0.1966730549087568	0.27334205595980726	0.4663053518206481	0.1920346023462559	0.24523940476742903	0.5852196661174816	0.30418584527510967	0.3120685712382205	0.7713667045847076	0.2864926532409522	0.1695145519876057	0.9455244435599588	0.2078302097774526	-0.06184620554193914	1.041572912713936	0.1336314092900528	-0.1329363848856391	1.078412918635772	0.1363572717632321	-0.1313977931789745	1.0957369851336531	0.16809894593939223	-0.13754656218010075	1.1075212425834928	0.0322193220699405	0.35712281436564225	0.7717616517646826	0.04073142382966556	0.10198620220393598	0.9408399988175994	0.1020937684075897	-0.08194325944436916	1.0345727763057042	0.14144801913601268	-0.13666922516726548	1.0579136811471672	0.1617771205452038	-0.13691118378183018	1.0945756648922869	0.15188686501439366	-0.1287760507473348	1.1010020134150555
86	1.4576271186440677	0.26380527795052644	0.407711144749313	1.2217257474811716	0.22815418600611395	0.4449761205823187	1.6351214618428194	0.22914954029109072	0.5153089761611135	2.0000689823149846	0.22154294636367178	0.3554990698485029	2.025315462840024	0.2864179399492028	0.3834981960218866	2.027357470931003	0.21449363520967032	0.6229543912063855	2.07487784052481	0.055249987544734556	0.39227346866269885	1.2177387302870595	0.0388976848154625	0.4970903392179806	1.6542874392709748	0.03214845270422356	0.56858254428577	2.0303478839357263	0.06636358579074243	0.3417177725994981	2.010747014305185	0.011310439453528335	0.39544277907643866	2.025253522079116	0.03989523223274509	0.5987488975059537	2.0579908693780666	0.17445641270921203	0.3503647160856952	0.6940843261568165	0.19665404095073832	0.27333634264065537	0.46634252562216993	0.19202690919248216	0.2452520733836348	0.5852316750232626	0.30419898001987655	0.3120813312198499	0.7713697973586269	0.2859730898921929	0.17039954466047244	0.9485447136473968	0.20782960907835113	-0.06185942087422318	1.041523684363509	0.1336028119878858	-0.13355106867565117	1.0784611215223128	0.1362958903852363	-0.13122434933676164	1.0958236782311714	0.17190968442720705	-0.13735429743735278	1.1074922067258477	0.03221826771923024	0.3571561911107266	0.7716923373847817	0.04053695719498584	0.10274154820466203	0.944898686908604	0.10220497403261723	-0.08182579171367427	1.0345794579686713	0.13762751074195428	-0.13852351251050155	1.0614526811605998	0.16181749544658908	-0.13696567310704846	1.0946971932993894	0.15449671596009096	-0.11942139896958422	1.1027984540592835
87	1.4745762711864407	0.26387156256945665	0.4075546563220667	1.2219752425577193	0.2281770580732758	0.4449482678711183	1.6349518364607523	0.2291392141813004	0.5152774558506845	2.000052108385916	0.2215265560622879	0.355324215330625	2.0252100404375497	0.28547432518520166	0.3846710462955024	2.0315958057110164	0.21360401808445517	0.619556087498642	2.0687315099843464	0.05525589611265096	0.3921385619506194	1.2179197218651376	0.03611161419619268	0.4829348325569749	1.6495524349583088	0.037423657861519105	0.5532111894260184	2.023187034328511	0.06714275936138284	0.3447638589156188	2.016232483719178	0.01668538804597065	0.3812821101658616	2.018183829464755	0.04294958703698025	0.6132072427174717	2.064538925153699	0.17852136286751297	0.33774559577544616	0.6935567834531157	0.19665601413596062	0.27331866830671164	0.46633176206742555	0.19201353024189513	0.24528191793806153	0.585221764007301	0.3039639891842203	0.31261525311460775	0.7746783101735136	0.28605102765256185	0.17017422679886504	0.9484854825196071	0.2039269915559397	-0.061755841282091675	1.0416345485044598	0.13437048575286115	-0.13164009204005603	1.082603330928583	0.13668644091222032	-0.13103214023374163	1.095890413806579	0.1680410355596444	-0.13755573881689598	1.1075077294969329	0.03220694625582248	0.3570467840439833	0.7715222170632617	0.040798941699097604	0.10200812500771284	0.9407924031656864	0.10216773239190546	-0.08178855819579993	1.0345407037889827	0.1380397366733371	-0.13864192667424774	1.0578035194497966	0.16179539153176528	-0.13692589299968774	1.0946759896222162	0.15433610989534954	-0.11928634816277985	1.10278651371564
88	1.4915254237288136	0.26320757681878215	0.4084966031150882	1.2262260626478534	0.2281191570351647	0.44502085759236304	1.6349495454127898	0.22579490841946084	0.5010175301715215	1.9937141790080477	0.22159227985725616	0.3552869774025371	2.0252999933423657	0.28651683773127695	0.38344150874377797	2.0274610808558817	0.21355361331064224	0.6192206883511484	2.0687240263046056	0.0501038576483535	0.40562625487051696	1.220560812733026	0.036105386469915575	0.48300954200118545	1.6495289137486935	0.03217647964537579	0.5685819547937676	2.0302173938446755	0.06711773015035136	0.3446859551208319	2.0162550187520965	0.016697361174756523	0.38124878421892344	2.018245786942714	0.042910724713406526	0.6133135410513681	2.0644806440517387	0.17852800638656466	0.33779379482668	0.6935257464977818	0.19666251233089074	0.27335613466338277	0.466334284914419	0.19201536389259116	0.24532349719849655	0.5851618017145158	0.3042292413572498	0.31184224445453856	0.771280661914799	0.2860373619904765	0.1703469292539483	0.9485006952811732	0.20396039486767284	-0.061697172521108505	1.0415691100508853	0.1346898964650378	-0.13131204731151688	1.0827145141642533	0.14041998204092312	-0.13958943243929697	1.094016665147763	0.16799256370735663	-0.13750797391270136	1.1075279435465721	0.03230306182173464	0.3573608531760269	0.7714613518402341	0.04485727187300976	0.10395682395473174	0.9407783345462701	0.1021586486801276	-0.08189596400683116	1.03453998350953	0.13819517515122748	-0.138557972888185	1.0578389060747857	0.16185806295314048	-0.13696020277609067	1.094759356965137	0.15446925895049116	-0.11944338631907744	1.1027639558038882
